<?xml version="1.0" standalone="no"?>
<!DOCTYPE svg PUBLIC "-//W3C//DTD SVG 20010904//EN"
 "http://www.w3.org/TR/2001/REC-SVG-20010904/DTD/svg10.dtd">
<svg version="1.0" xmlns="http://www.w3.org/2000/svg"
 width="480.000000pt" height="480.000000pt" viewBox="0 0 480.000000 480.000000"
 preserveAspectRatio="xMidYMid meet">
<g transform="translate(0.000000,480.000000) scale(0.100000,-0.100000)"
fill="#000000" stroke="none">
<path d="M560 4523 c-41 -5 -113 -25 -141 -39 -140 -70 -188 -301 -123 -591
128 -573 498 -1030 936 -1157 88 -25 142 -31 408 -42 85 -3 177 -10 204 -15
101 -19 142 -54 446 -389 52 -57 108 -118 124 -135 15 -16 59 -64 96 -105 97
-107 117 -129 164 -180 23 -25 87 -94 141 -155 55 -60 102 -112 106 -115 3 -3
29 -32 59 -65 29 -33 78 -87 109 -120 31 -33 126 -136 211 -230 179 -196 231
-253 246 -269 5 -6 83 -92 173 -191 90 -99 218 -235 285 -302 118 -117 124
-122 196 -144 90 -28 199 -31 245 -7 140 75 129 316 -22 474 -32 32 -211 200
-273 254 -9 8 -63 58 -120 110 -57 52 -112 103 -124 113 -12 10 -43 40 -71 66
-27 26 -79 74 -115 106 -36 33 -113 103 -170 156 -58 53 -193 176 -300 274
-159 145 -279 256 -424 390 -6 6 -63 57 -126 115 -306 278 -506 469 -537 515
-43 62 -56 145 -68 410 -11 236 -28 314 -105 470 -116 236 -334 452 -600 593
-166 89 -371 161 -545 193 -58 11 -234 18 -285 12z"/>
</g>
</svg>
